<svg width="376" height="19" viewBox="0 0 376 19" fill="none" xmlns="http://www.w3.org/2000/svg">
<line x1="8" y1="0.5" x2="369" y2="0.5" stroke="#4E4E4E"/>
<line x1="28.5" y1="1" x2="28.5" y2="6" stroke="#4E4E4E"/>
<line x1="8.5" y1="1" x2="8.5" y2="6" stroke="#4E4E4E"/>
<path d="M48 1L48 6" stroke="#4E4E4E"/>
<line x1="68.5" y1="2.18557e-08" x2="68.5" y2="6" stroke="#4E4E4E"/>
<line x1="88.5" y1="1" x2="88.5" y2="6" stroke="#4E4E4E"/>
<line x1="108.5" y1="1" x2="108.5" y2="6" stroke="#4E4E4E"/>
<line x1="128.5" y1="1" x2="128.5" y2="6" stroke="#4E4E4E"/>
<line x1="148.5" y1="1" x2="148.5" y2="6" stroke="#4E4E4E"/>
<line x1="168.5" y1="1" x2="168.5" y2="6" stroke="#4E4E4E"/>
<line x1="188.5" y1="1" x2="188.5" y2="6" stroke="#4E4E4E"/>
<line x1="208.5" y1="1" x2="208.5" y2="6" stroke="#4E4E4E"/>
<line x1="228.5" y1="1" x2="228.5" y2="6" stroke="#4E4E4E"/>
<line x1="248.5" y1="1" x2="248.5" y2="6" stroke="#4E4E4E"/>
<line x1="268.5" y1="1" x2="268.5" y2="6" stroke="#4E4E4E"/>
<line x1="288.5" y1="1" x2="288.5" y2="6" stroke="#4E4E4E"/>
<line x1="308.5" y1="1" x2="308.5" y2="6" stroke="#4E4E4E"/>
<line x1="328.5" y1="1" x2="328.5" y2="6" stroke="#4E4E4E"/>
<line x1="348.5" y1="1" x2="348.5" y2="6" stroke="#4E4E4E"/>
<line x1="368.5" y1="1" x2="368.5" y2="6" stroke="#4E4E4E"/>
<path d="M3.87784 18.1449C3.20455 18.142 2.62926 17.9645 2.15199 17.6122C1.67472 17.2599 1.30966 16.7472 1.05682 16.0739C0.803977 15.4006 0.677557 14.5895 0.677557 13.6406C0.677557 12.6946 0.803977 11.8864 1.05682 11.2159C1.3125 10.5455 1.67898 10.0341 2.15625 9.68182C2.63636 9.32955 3.21023 9.15341 3.87784 9.15341C4.54545 9.15341 5.1179 9.33097 5.59517 9.68608C6.07244 10.0384 6.4375 10.5497 6.69034 11.2202C6.94602 11.8878 7.07386 12.6946 7.07386 13.6406C7.07386 14.5923 6.94744 15.4048 6.6946 16.0781C6.44176 16.7486 6.0767 17.2614 5.59943 17.6165C5.12216 17.9688 4.5483 18.1449 3.87784 18.1449ZM3.87784 17.0071C4.46875 17.0071 4.9304 16.7188 5.26278 16.142C5.59801 15.5653 5.76562 14.7315 5.76562 13.6406C5.76562 12.9162 5.68892 12.304 5.53551 11.804C5.38494 11.3011 5.16761 10.9205 4.88352 10.6619C4.60227 10.4006 4.26705 10.2699 3.87784 10.2699C3.28977 10.2699 2.82813 10.5597 2.4929 11.1392C2.15767 11.7187 1.98864 12.5526 1.9858 13.6406C1.9858 14.3679 2.06108 14.983 2.21165 15.4858C2.36506 15.9858 2.58239 16.3651 2.86364 16.6236C3.14489 16.8793 3.48295 17.0071 3.87784 17.0071ZM11.6325 18.1193C11.2433 18.1136 10.8597 18.0426 10.4819 17.9062C10.1069 17.7699 9.76598 17.5426 9.45916 17.2244C9.15234 16.9062 8.90661 16.4787 8.72195 15.9418C8.54013 15.4048 8.44922 14.7344 8.44922 13.9304C8.44922 13.169 8.5245 12.4929 8.67507 11.902C8.82848 11.3111 9.04865 10.8125 9.33558 10.4062C9.62251 9.99716 9.96911 9.68608 10.3754 9.47301C10.7816 9.25994 11.2376 9.15341 11.7433 9.15341C12.2631 9.15341 12.7248 9.25568 13.1282 9.46023C13.5316 9.66477 13.8583 9.94744 14.1083 10.3082C14.3612 10.669 14.5217 11.0795 14.5898 11.5398H13.2901C13.2021 11.1761 13.0273 10.8793 12.766 10.6491C12.5046 10.419 12.1637 10.304 11.7433 10.304C11.104 10.304 10.6055 10.5824 10.2475 11.1392C9.8924 11.696 9.71342 12.4702 9.71058 13.4616H9.7745C9.92507 13.2145 10.1097 13.0043 10.3285 12.831C10.5501 12.6548 10.7972 12.5199 11.07 12.4261C11.3455 12.3295 11.6353 12.2812 11.9393 12.2812C12.445 12.2812 12.9023 12.4048 13.3114 12.652C13.7234 12.8963 14.0515 13.2344 14.2958 13.6662C14.5401 14.098 14.6623 14.5923 14.6623 15.1491C14.6623 15.706 14.5359 16.2102 14.283 16.6619C14.033 17.1136 13.6808 17.4716 13.2262 17.7358C12.7717 17.9972 12.2404 18.125 11.6325 18.1193ZM11.6282 17.0114C11.9634 17.0114 12.2631 16.929 12.5273 16.7642C12.7915 16.5994 13.0004 16.3778 13.1538 16.0994C13.3072 15.821 13.3839 15.5099 13.3839 15.1662C13.3839 14.831 13.3086 14.5256 13.158 14.25C13.0103 13.9744 12.8058 13.7557 12.5444 13.5938C12.2859 13.4318 11.9904 13.3509 11.658 13.3509C11.4052 13.3509 11.1708 13.3991 10.9549 13.4957C10.7418 13.5923 10.5543 13.7259 10.3924 13.8963C10.2305 14.0668 10.1026 14.2628 10.0089 14.4844C9.91797 14.7031 9.87251 14.9347 9.87251 15.179C9.87251 15.5057 9.9478 15.8082 10.0984 16.0866C10.2518 16.3651 10.4606 16.5895 10.7248 16.7599C10.9918 16.9276 11.293 17.0114 11.6282 17.0114Z" fill="black"/>
<path d="M63.8778 18.1449C63.2045 18.142 62.6293 17.9645 62.152 17.6122C61.6747 17.2599 61.3097 16.7472 61.0568 16.0739C60.804 15.4006 60.6776 14.5895 60.6776 13.6406C60.6776 12.6946 60.804 11.8864 61.0568 11.2159C61.3125 10.5455 61.679 10.0341 62.1562 9.68182C62.6364 9.32955 63.2102 9.15341 63.8778 9.15341C64.5455 9.15341 65.1179 9.33097 65.5952 9.68608C66.0724 10.0384 66.4375 10.5497 66.6903 11.2202C66.946 11.8878 67.0739 12.6946 67.0739 13.6406C67.0739 14.5923 66.9474 15.4048 66.6946 16.0781C66.4418 16.7486 66.0767 17.2614 65.5994 17.6165C65.1222 17.9688 64.5483 18.1449 63.8778 18.1449ZM63.8778 17.0071C64.4688 17.0071 64.9304 16.7188 65.2628 16.142C65.598 15.5653 65.7656 14.7315 65.7656 13.6406C65.7656 12.9162 65.6889 12.304 65.5355 11.804C65.3849 11.3011 65.1676 10.9205 64.8835 10.6619C64.6023 10.4006 64.267 10.2699 63.8778 10.2699C63.2898 10.2699 62.8281 10.5597 62.4929 11.1392C62.1577 11.7187 61.9886 12.5526 61.9858 13.6406C61.9858 14.3679 62.0611 14.983 62.2116 15.4858C62.3651 15.9858 62.5824 16.3651 62.8636 16.6236C63.1449 16.8793 63.483 17.0071 63.8778 17.0071ZM71.4876 9.15341C71.8768 9.15625 72.2603 9.22727 72.6381 9.36648C73.016 9.50568 73.3569 9.73295 73.6609 10.0483C73.9677 10.3636 74.212 10.7898 74.3938 11.3267C74.5785 11.8608 74.6722 12.5256 74.6751 13.321C74.6751 14.0852 74.5984 14.7656 74.445 15.3622C74.2915 15.956 74.0714 16.4574 73.7844 16.8665C73.5004 17.2756 73.1552 17.5866 72.7489 17.7997C72.3427 18.0128 71.8853 18.1193 71.3768 18.1193C70.8569 18.1193 70.3952 18.017 69.9918 17.8125C69.5884 17.608 69.2603 17.3253 69.0075 16.9645C68.7546 16.6009 68.5969 16.1832 68.5344 15.7116H69.8342C69.9194 16.0866 70.0927 16.3906 70.354 16.6236C70.6183 16.8537 70.9592 16.9688 71.3768 16.9688C72.016 16.9688 72.5146 16.6903 72.8725 16.1335C73.2305 15.5739 73.4109 14.7926 73.4137 13.7898H73.3455C73.1978 14.0341 73.0131 14.2443 72.7915 14.4205C72.5728 14.5966 72.3271 14.733 72.0543 14.8295C71.7816 14.9261 71.4904 14.9744 71.1808 14.9744C70.6779 14.9744 70.2205 14.8509 69.8086 14.6037C69.3967 14.3565 69.0685 14.017 68.8242 13.5852C68.5799 13.1534 68.4577 12.6605 68.4577 12.1065C68.4577 11.5554 68.5827 11.0554 68.8327 10.6065C69.0856 10.1577 69.4379 9.80256 69.8896 9.54119C70.3441 9.27699 70.8768 9.14773 71.4876 9.15341ZM71.4918 10.2614C71.1594 10.2614 70.8597 10.3437 70.5927 10.5085C70.3285 10.6705 70.1197 10.8906 69.9663 11.169C69.8129 11.4446 69.7362 11.7514 69.7362 12.0895C69.7362 12.4276 69.81 12.7344 69.9577 13.0099C70.1083 13.2827 70.3129 13.5 70.5714 13.6619C70.8327 13.821 71.131 13.9006 71.4663 13.9006C71.7163 13.9006 71.9492 13.8523 72.1651 13.7557C72.381 13.6591 72.57 13.5256 72.7319 13.3551C72.8938 13.1818 73.0202 12.9858 73.1112 12.767C73.2021 12.5483 73.2475 12.3182 73.2475 12.0767C73.2475 11.7557 73.1708 11.4574 73.0174 11.1818C72.8668 10.9062 72.6594 10.6847 72.3952 10.517C72.131 10.3466 71.8299 10.2614 71.4918 10.2614Z" fill="black"/>
<path d="M124.151 9.27273V18H122.83V10.5938H122.778L120.69 11.9574V10.696L122.868 9.27273H124.151ZM126.511 18V17.0455L129.464 13.9858C129.78 13.6534 130.04 13.3622 130.244 13.1122C130.452 12.8594 130.607 12.6193 130.709 12.392C130.811 12.1648 130.862 11.9233 130.862 11.6676C130.862 11.3778 130.794 11.1278 130.658 10.9176C130.521 10.7045 130.335 10.5412 130.099 10.4276C129.864 10.3111 129.598 10.2528 129.303 10.2528C128.99 10.2528 128.717 10.3168 128.484 10.4446C128.251 10.5724 128.072 10.7528 127.947 10.9858C127.822 11.2187 127.76 11.4915 127.76 11.804H126.503C126.503 11.2727 126.625 10.8082 126.869 10.4105C127.114 10.0128 127.449 9.70455 127.875 9.4858C128.301 9.2642 128.786 9.15341 129.328 9.15341C129.876 9.15341 130.359 9.26278 130.777 9.48153C131.197 9.69744 131.526 9.9929 131.761 10.3679C131.997 10.7401 132.115 11.1605 132.115 11.6293C132.115 11.9531 132.054 12.2699 131.932 12.5795C131.813 12.8892 131.604 13.2344 131.305 13.6151C131.007 13.9929 130.592 14.4517 130.061 14.9915L128.327 16.8068V16.8707H132.256V18H126.511Z" fill="black"/>
<path d="M184.151 9.27273V18H182.83V10.5938H182.778L180.69 11.9574V10.696L182.868 9.27273H184.151ZM189.392 18.1193C188.858 18.1193 188.378 18.017 187.952 17.8125C187.528 17.6051 187.19 17.321 186.938 16.9602C186.685 16.5994 186.55 16.1875 186.533 15.7244H187.811C187.842 16.0994 188.009 16.4077 188.31 16.6491C188.611 16.8906 188.972 17.0114 189.392 17.0114C189.727 17.0114 190.024 16.9347 190.283 16.7812C190.544 16.625 190.749 16.4105 190.896 16.1378C191.047 15.8651 191.122 15.554 191.122 15.2045C191.122 14.8494 191.045 14.5327 190.892 14.2543C190.739 13.9759 190.527 13.7571 190.257 13.598C189.99 13.4389 189.683 13.358 189.337 13.3551C189.072 13.3551 188.807 13.4006 188.54 13.4915C188.273 13.5824 188.057 13.7017 187.892 13.8494L186.686 13.6705L187.176 9.27273H191.974V10.402H188.271L187.994 12.8438H188.045C188.216 12.679 188.442 12.5412 188.723 12.4304C189.007 12.3196 189.311 12.2642 189.635 12.2642C190.166 12.2642 190.639 12.3906 191.054 12.6435C191.472 12.8963 191.8 13.2415 192.038 13.679C192.28 14.1136 192.399 14.6136 192.396 15.179C192.399 15.7443 192.271 16.2486 192.013 16.6918C191.757 17.1349 191.402 17.4844 190.947 17.7401C190.496 17.9929 189.977 18.1193 189.392 18.1193Z" fill="black"/>
<path d="M244.151 9.27273V18H242.83V10.5938H242.778L240.69 11.9574V10.696L242.868 9.27273H244.151ZM249.46 18.1193C248.849 18.1193 248.31 18.0142 247.841 17.804C247.375 17.5937 247.01 17.304 246.746 16.9347C246.482 16.5653 246.351 16.1449 246.354 15.6733C246.351 15.304 246.426 14.9645 246.58 14.6548C246.736 14.3423 246.947 14.0824 247.214 13.875C247.482 13.6648 247.78 13.5312 248.109 13.4744V13.4233C247.675 13.3182 247.327 13.0852 247.065 12.7244C246.804 12.3636 246.675 11.9489 246.678 11.4801C246.675 11.0341 246.793 10.6364 247.031 10.2869C247.273 9.93466 247.604 9.65767 248.024 9.45597C248.445 9.25426 248.923 9.15341 249.46 9.15341C249.991 9.15341 250.466 9.25568 250.884 9.46023C251.304 9.66193 251.635 9.93892 251.876 10.2912C252.118 10.6406 252.24 11.0369 252.243 11.4801C252.24 11.9489 252.107 12.3636 251.842 12.7244C251.578 13.0852 251.234 13.3182 250.811 13.4233V13.4744C251.138 13.5312 251.432 13.6648 251.693 13.875C251.957 14.0824 252.168 14.3423 252.324 14.6548C252.483 14.9645 252.564 15.304 252.567 15.6733C252.564 16.1449 252.43 16.5653 252.166 16.9347C251.902 17.304 251.536 17.5937 251.067 17.804C250.601 18.0142 250.065 18.1193 249.46 18.1193ZM249.46 17.0412C249.821 17.0412 250.134 16.9815 250.398 16.8622C250.662 16.7401 250.866 16.571 251.011 16.3551C251.156 16.1364 251.23 15.8807 251.233 15.5881C251.23 15.2841 251.151 15.0156 250.994 14.7827C250.841 14.5497 250.632 14.3665 250.368 14.233C250.104 14.0994 249.801 14.0327 249.46 14.0327C249.116 14.0327 248.811 14.0994 248.544 14.233C248.277 14.3665 248.067 14.5497 247.913 14.7827C247.76 15.0156 247.685 15.2841 247.688 15.5881C247.685 15.8807 247.754 16.1364 247.896 16.3551C248.041 16.571 248.247 16.7401 248.514 16.8622C248.781 16.9815 249.097 17.0412 249.46 17.0412ZM249.46 12.9801C249.75 12.9801 250.007 12.9219 250.232 12.8054C250.456 12.6889 250.632 12.527 250.76 12.3196C250.891 12.1122 250.957 11.8693 250.96 11.5909C250.957 11.3182 250.892 11.0795 250.764 10.875C250.639 10.6705 250.464 10.5128 250.24 10.402C250.016 10.2884 249.756 10.2315 249.46 10.2315C249.159 10.2315 248.895 10.2884 248.668 10.402C248.443 10.5128 248.268 10.6705 248.143 10.875C248.018 11.0795 247.957 11.3182 247.96 11.5909C247.957 11.8693 248.02 12.1122 248.148 12.3196C248.276 12.527 248.452 12.6889 248.676 12.8054C248.903 12.9219 249.165 12.9801 249.46 12.9801Z" fill="black"/>
<path d="M300.839 18V17.0455L303.793 13.9858C304.108 13.6534 304.368 13.3622 304.572 13.1122C304.78 12.8594 304.935 12.6193 305.037 12.392C305.139 12.1648 305.19 11.9233 305.19 11.6676C305.19 11.3778 305.122 11.1278 304.986 10.9176C304.849 10.7045 304.663 10.5412 304.428 10.4276C304.192 10.3111 303.926 10.2528 303.631 10.2528C303.318 10.2528 303.045 10.3168 302.812 10.4446C302.58 10.5724 302.401 10.7528 302.276 10.9858C302.151 11.2187 302.088 11.4915 302.088 11.804H300.831C300.831 11.2727 300.953 10.8082 301.197 10.4105C301.442 10.0128 301.777 9.70455 302.203 9.4858C302.629 9.2642 303.114 9.15341 303.656 9.15341C304.205 9.15341 304.688 9.26278 305.105 9.48153C305.526 9.69744 305.854 9.9929 306.089 10.3679C306.325 10.7401 306.443 11.1605 306.443 11.6293C306.443 11.9531 306.382 12.2699 306.26 12.5795C306.141 12.8892 305.932 13.2344 305.634 13.6151C305.335 13.9929 304.92 14.4517 304.389 14.9915L302.655 16.8068V16.8707H306.584V18H300.839ZM311.51 9.27273V18H310.189V10.5938H310.138L308.05 11.9574V10.696L310.227 9.27273H311.51Z" fill="black"/>
<path d="M360.839 18V17.0455L363.793 13.9858C364.108 13.6534 364.368 13.3622 364.572 13.1122C364.78 12.8594 364.935 12.6193 365.037 12.392C365.139 12.1648 365.19 11.9233 365.19 11.6676C365.19 11.3778 365.122 11.1278 364.986 10.9176C364.849 10.7045 364.663 10.5412 364.428 10.4276C364.192 10.3111 363.926 10.2528 363.631 10.2528C363.318 10.2528 363.045 10.3168 362.812 10.4446C362.58 10.5724 362.401 10.7528 362.276 10.9858C362.151 11.2187 362.088 11.4915 362.088 11.804H360.831C360.831 11.2727 360.953 10.8082 361.197 10.4105C361.442 10.0128 361.777 9.70455 362.203 9.4858C362.629 9.2642 363.114 9.15341 363.656 9.15341C364.205 9.15341 364.688 9.26278 365.105 9.48153C365.526 9.69744 365.854 9.9929 366.089 10.3679C366.325 10.7401 366.443 11.1605 366.443 11.6293C366.443 11.9531 366.382 12.2699 366.26 12.5795C366.141 12.8892 365.932 13.2344 365.634 13.6151C365.335 13.9929 364.92 14.4517 364.389 14.9915L362.655 16.8068V16.8707H366.584V18H360.839ZM367.828 16.2955V15.2301L371.599 9.27273H372.439V10.8409H371.906L369.209 15.1108V15.179H374.378V16.2955H367.828ZM371.966 18V15.9716L371.974 15.4858V9.27273H373.223V18H371.966Z" fill="black"/>
</svg>
