<svg width="37" height="39" viewBox="0 0 37 39" fill="none" xmlns="http://www.w3.org/2000/svg">
<g id="Group 63">
<path id="Vector 249" d="M5.56459 24.6901H5.57189L5.57918 24.69C6.48108 24.6768 7.41205 24.6832 7.95765 24.6874C8.43992 25.1672 9.35299 26.0739 10.2238 26.9384L11.7208 28.4242L12.2023 28.9021L12.3361 29.0349L12.3492 29.0479C12.3707 29.0733 12.3997 29.1068 12.4361 29.1474C12.5115 29.2315 12.619 29.3461 12.7577 29.4811C13.0345 29.7503 13.4394 30.1042 13.9648 30.4574C14.8767 31.0706 16.1723 31.6947 17.7955 31.8478C18.1712 32.9639 18.733 34.0076 19.3034 34.848C19.6511 35.3602 20.0131 35.8134 20.3562 36.1739C20.6779 36.512 21.0526 36.8434 21.432 37.0216L21.6343 37.1166L21.8579 37.1165C22.735 37.1159 23.674 36.7701 24.5273 36.3394C25.4037 35.8969 26.3007 35.307 27.1229 34.6999C28.7576 33.4928 30.2025 32.1381 30.7256 31.5443C31.7063 30.4313 33.1096 28.5946 34.0326 25.9631C34.9438 23.3651 35.1602 21.4809 35.1602 18.9125C35.1602 17.6357 35.0953 16.6583 34.8866 15.6422C34.6798 14.6355 34.3392 13.6282 33.8283 12.2906C32.753 9.47519 30.5778 6.29783 27.5112 4.09344C26.8743 3.63562 25.7852 2.85285 24.6846 2.28417C24.1361 2.00077 23.5355 1.7441 22.9519 1.61833C22.3879 1.49679 21.6713 1.46183 21.0422 1.84544C20.5781 2.12843 20.1923 2.55044 19.8734 2.9814C19.5479 3.42125 19.2492 3.92981 18.977 4.44576C18.6036 5.15336 18.244 5.9476 17.9239 6.65446C17.8788 6.75428 17.8343 6.85235 17.7908 6.94819C16.0197 7.05419 14.7614 7.58624 13.9096 8.16255C13.4384 8.4813 13.1027 8.80596 12.8785 9.0622C12.7664 9.19025 12.6821 9.30132 12.6224 9.38628C12.6142 9.39796 12.6064 9.40915 12.5991 9.41983L12.4985 9.52036L12.0283 9.9904C11.635 10.3836 11.1006 10.918 10.5361 11.4829C9.59227 12.4274 8.56166 13.4597 7.96729 14.0582C7.81323 14.0587 7.62845 14.0592 7.42695 14.0598C7.27514 14.0603 7.11384 14.0607 6.94903 14.0612C6.27355 14.0632 5.53693 14.0651 5.13905 14.0651C4.9467 14.0651 4.76124 14.0638 4.59683 14.0627C4.43474 14.0616 4.29312 14.0606 4.18555 14.0612C3.95905 14.0623 3.71638 14.068 3.48751 14.1146C2.99973 14.2141 2.67347 14.4969 2.43888 14.7003C2.40687 14.728 2.37656 14.7543 2.34779 14.7784L2.27466 14.8397L2.21444 14.9138C2.04626 15.1206 1.88336 15.3544 1.76982 15.6553C1.65841 15.9504 1.61856 16.2463 1.60207 16.5467C1.58508 16.8564 1.59135 17.2834 1.59968 17.8514C1.60571 18.2618 1.61281 18.7458 1.613 19.3124C1.61316 19.7877 1.61073 20.2047 1.60859 20.5705C1.60394 21.3669 1.60071 21.9214 1.62872 22.31C1.65085 22.617 1.69615 22.9139 1.81239 23.2026C1.93243 23.5007 2.09994 23.7197 2.25648 23.9009C2.73243 24.4519 3.31973 24.6283 3.88151 24.6811C4.20594 24.7117 4.61764 24.7042 5.02813 24.6967C5.20974 24.6934 5.39112 24.6901 5.56459 24.6901Z" fill="#FAFAFA" stroke="#FAFAFA" stroke-width="2"/>
<path id="Vector" d="M2.63184 16.502V22.2515C2.63184 23.0421 3.27866 23.6889 4.06921 23.6889H8.38135L13.1103 28.4179C14.0159 29.3234 15.5682 28.6766 15.5682 27.3973V11.3418C15.5682 10.0626 14.0159 9.41575 13.1103 10.3213L8.38135 15.0646H4.06921C3.27866 15.0646 2.63184 15.7115 2.63184 16.502ZM22.0364 19.3768C22.0361 18.1724 21.6996 16.9921 21.0647 15.9687C20.4298 14.9452 19.5219 14.1194 18.443 13.5841V25.155C20.5703 24.1057 22.0364 21.9209 22.0364 19.3768ZM18.443 8.52457V8.81205C18.443 9.35825 18.8023 9.83259 19.3054 10.0338C23.0139 11.5143 25.6299 15.1509 25.6299 19.3768C25.6299 23.6027 23.0139 27.2392 19.3054 28.7197C18.788 28.921 18.443 29.3953 18.443 29.9415V30.229C18.443 31.1345 19.3485 31.767 20.1822 31.4507C25.0549 29.5965 28.5046 24.8963 28.5046 19.3768C28.5046 13.8572 25.0549 9.15702 20.1822 7.3028C19.3485 6.9722 18.443 7.61902 18.443 8.52457Z" fill="black"/>
<path id="Vector_2" fill-rule="evenodd" clip-rule="evenodd" d="M21.0647 15.9687C21.6996 16.9921 22.0361 18.1724 22.0364 19.3768C22.0364 21.9209 20.5703 24.1057 18.443 25.155V13.5841C19.5219 14.1194 20.4298 14.9452 21.0647 15.9687ZM18.443 8.81205V8.52457C18.443 7.61902 19.3485 6.9722 20.1822 7.3028C25.0549 9.15702 28.5046 13.8572 28.5046 19.3768C28.5046 24.8963 25.0549 29.5965 20.1822 31.4507C19.3485 31.767 18.443 31.1345 18.443 30.229V29.9415C18.443 29.3953 18.788 28.921 19.3054 28.7197C23.0139 27.2392 25.6299 23.6027 25.6299 19.3768C25.6299 15.1509 23.0139 11.5143 19.3054 10.0338C18.8023 9.83259 18.443 9.35825 18.443 8.81205Z" fill="#FC3333"/>
<path id="Ellipse 33" d="M22.2285 4.02002C26.2306 5.33776 32.6369 10.7418 32.6369 19.3137C32.6369 27.8856 27.11 32.4245 22.2782 34.6207" stroke="#FC3333" stroke-width="3" stroke-linecap="round"/>
</g>
</svg>
