<svg width="26" height="46" viewBox="0 0 26 46" fill="none" xmlns="http://www.w3.org/2000/svg">
<path d="M20.9063 8.87905V8.76986L20.8904 8.66182C20.6871 7.27262 19.9362 5.50703 18.6669 4.08427C17.3736 2.63454 15.4517 1.45078 12.9448 1.51824C10.2923 1.5247 8.28398 2.68971 6.96163 4.18875C5.67833 5.64352 4.98629 7.47482 4.98501 8.97286C4.98501 8.97425 4.98501 8.97563 4.98501 8.97702L4.90337 25.0226C3.76521 26.3684 1.91309 28.5629 1.91309 32.4911C1.91309 37.3405 5.61052 43.5284 12.9842 43.5284C19.2151 43.5284 23.9202 38.3314 23.9202 32.4742C23.9202 30.7356 23.5843 29.3258 22.9536 28.0392C22.4211 26.9528 21.6996 26.0013 20.9063 25.065V8.87905Z" stroke="#FAFAFA" stroke-width="3"/>
<path d="M17.9611 38.7584C16.9103 39.618 15.6593 40.1944 14.3259 40.4333C12.9925 40.6722 11.6207 40.5658 10.3394 40.1241C9.05823 39.6824 7.90982 38.9199 7.00235 37.9085C6.09488 36.897 5.4582 35.6698 5.15224 34.3424C4.844 33.0007 4.88397 31.6017 5.26832 30.28C5.65266 28.9582 6.36846 27.7582 7.34691 26.7951C7.53543 26.6092 7.6854 26.3875 7.78814 26.1429C7.89089 25.8983 7.94436 25.6355 7.94545 25.37V9.51255C7.94545 8.18165 8.47096 6.90526 9.40637 5.96417C10.3418 5.02308 11.6105 4.49438 12.9333 4.49438C14.2562 4.49438 15.5249 5.02308 16.4603 5.96417C17.3957 6.90526 17.9212 8.18165 17.9212 9.51255V25.4503C17.9223 25.7158 17.9758 25.9785 18.0785 26.2232C18.1813 26.4678 18.3312 26.6895 18.5197 26.8754C19.3353 27.668 19.9735 28.6264 20.392 29.6867C20.8105 30.7469 20.9997 31.8847 20.9468 33.0243C20.8939 34.1638 20.6003 35.279 20.0855 36.2954C19.5707 37.3119 18.8465 38.0457 17.9611 38.7584Z" fill="#FAFAFA" stroke="black" stroke-width="3"/>
<path d="M14.5 25.5037C14.5 24.6752 13.8284 24.0037 13 24.0037C12.1716 24.0037 11.5 24.6752 11.5 25.5037L14.5 25.5037ZM11.5 25.5037L11.5 29.3381L14.5 29.3381L14.5 25.5037L11.5 25.5037Z" fill="#7F9FF0"/>
<circle cx="12.9707" cy="32.6143" r="4" fill="#7F9FF0"/>
</svg>
