<svg width="24" height="24" viewBox="0 0 24 24" fill="none" xmlns="http://www.w3.org/2000/svg">
<g id="Group 63">
<path id="Vector 249" d="M12.4968 21.326C11.8787 22.1121 11.8791 22.1124 11.8795 22.1127L11.8803 22.1134L11.8821 22.1148L11.8862 22.118L11.8967 22.1261C11.9048 22.1322 11.9148 22.1397 11.9268 22.1485C11.9506 22.166 11.9824 22.1887 12.0211 22.2149C12.0981 22.2671 12.2056 22.3352 12.3368 22.4058C12.5876 22.541 12.9787 22.7148 13.438 22.766C13.9195 22.8197 14.5054 22.7384 15.0286 22.3184C15.4684 21.9654 15.7691 21.4482 15.9612 20.811C16.5474 20.2191 16.9629 19.8638 17.2972 19.617C17.6317 19.3701 17.8995 19.2197 18.2407 19.0282C18.2697 19.0119 18.2992 18.9954 18.3294 18.9784C19.6261 18.288 20.4589 17.5011 21.0177 16.7407C21.5142 16.065 21.7757 15.4293 21.9401 15.0297C21.9585 14.9849 21.9757 14.9431 21.9919 14.9045C22.2196 14.3617 22.3238 13.7412 22.3782 13.2287C22.4306 12.7346 22.4429 12.2712 22.4507 11.9768C22.4512 11.9589 22.4516 11.9416 22.4521 11.925C22.4595 11.6521 22.4069 11.3428 22.3522 11.0866C22.2931 10.81 22.2125 10.5111 22.1267 10.2283C21.9666 9.70023 21.7487 9.0966 21.5732 8.79206C21.4271 8.53856 21.1538 8.15491 20.9052 7.82774C20.6674 7.51474 20.3661 7.13897 20.158 6.94672C20.1444 6.93413 20.1311 6.92186 20.1181 6.90988C19.869 6.67954 19.733 6.55382 19.3601 6.2741C19.0794 6.06358 18.8895 5.9363 18.7205 5.83947C18.6366 5.79137 18.5659 5.75544 18.5092 5.72695C18.5012 5.72297 18.4937 5.71919 18.4865 5.71557C18.4408 5.69265 18.4076 5.676 18.3667 5.65391L18.3667 5.65389C18.3659 5.65349 18.3576 5.64885 18.3399 5.63786C18.3218 5.62659 18.2981 5.61138 18.2684 5.59159C18.2087 5.55178 18.1336 5.49956 18.043 5.43476C17.8617 5.30508 17.6357 5.13751 17.3758 4.94267C17.2242 4.82903 17.0614 4.70634 16.8911 4.57805C16.5938 4.35407 16.2739 4.11304 15.9516 3.87335C15.8688 3.39099 15.6935 2.96838 15.4082 2.6263C15.0214 2.16251 14.5247 1.95716 14.0864 1.88392C13.297 1.752 12.5598 2.0255 12.4493 2.06648C12.4472 2.06728 12.4453 2.06799 12.4436 2.0686C12.1822 2.16508 11.9374 2.34822 11.7701 2.48179C11.5744 2.6381 11.3572 2.83287 11.133 3.04523C10.683 3.47131 10.1573 4.01308 9.63747 4.56378C9.12366 5.1081 8.62538 5.64994 8.19322 6.11988C7.87538 6.4655 7.59331 6.77223 7.36712 7.01246C7.21478 7.01288 7.03314 7.01342 6.83543 7.01401C6.68382 7.01446 6.52277 7.01493 6.3582 7.01541C5.68273 7.01736 4.94611 7.01931 4.54823 7.01931C4.35589 7.01931 4.17045 7.01804 4.00606 7.0169C3.84395 7.01579 3.70231 7.01481 3.59473 7.01534C3.36823 7.01646 3.12556 7.02216 2.89669 7.06882C2.40891 7.16826 2.08265 7.4511 1.84805 7.65447C1.81605 7.68222 1.78574 7.70849 1.75697 7.73261L1.68384 7.79392L1.62362 7.86796C1.45544 8.07475 1.29254 8.30862 1.179 8.60944C1.06759 8.90461 1.02774 9.20051 1.01125 9.50094C0.99426 9.81057 1.00053 10.2376 1.00886 10.8056C1.01489 11.216 1.02199 11.7 1.02218 12.2666C1.02234 12.7419 1.01991 13.1588 1.01777 13.5247C1.01312 14.3211 1.00989 14.8756 1.0379 15.2642C1.06003 15.5712 1.10533 15.8681 1.22157 16.1568C1.34161 16.4549 1.50911 16.6739 1.66566 16.8551C2.14161 17.406 2.72891 17.5824 3.29069 17.6353C3.61512 17.6659 4.02682 17.6584 4.43731 17.6509C4.61892 17.6476 4.8003 17.6443 4.97377 17.6443H4.98107L4.98836 17.6442C5.89026 17.631 6.82123 17.6374 7.36683 17.6416C7.8491 18.1214 8.76217 19.0281 9.63296 19.8926L11.1299 21.3784L11.6115 21.8563L11.7452 21.9891L11.7804 22.0239L11.7894 22.0328L11.7916 22.0351L11.7922 22.0357L11.7924 22.0358L12.4968 21.326ZM12.4968 21.326L11.8787 22.1121L11.8334 22.0765L11.7924 22.0359L12.4968 21.326Z" fill="#FAFAFA" stroke="#FAFAFA" stroke-width="2"/>
<path id="Vector" fill-rule="evenodd" clip-rule="evenodd" d="M2.04102 15.2057V9.45624C2.04102 8.66568 2.68784 8.01886 3.47839 8.01886H7.79053L12.5195 3.27551C13.425 2.36996 14.9774 3.01678 14.9774 4.29605V20.3516C14.9774 21.6308 13.425 22.2776 12.5195 21.3721L7.79053 16.6431H3.47839C2.68784 16.6431 2.04102 15.9963 2.04102 15.2057ZM20.4739 8.92288C21.1088 9.9463 21.4453 11.1266 21.4456 12.331C21.4456 14.8752 19.9795 17.06 17.8522 18.1093V6.53836C18.931 7.07362 19.839 7.89946 20.4739 8.92288Z" fill="black"/>
<path id="Vector_2" fill-rule="evenodd" clip-rule="evenodd" d="M21.4456 12.331C21.4453 11.1266 21.1088 9.9463 20.4739 8.92288C19.839 7.89946 18.931 7.07362 17.8522 6.53836V18.1093C19.9795 17.06 21.4456 14.8752 21.4456 12.331Z" fill="#49D53D"/>
</g>
</svg>
