<svg width="125" height="114" viewBox="0 0 125 114" fill="none" xmlns="http://www.w3.org/2000/svg">
<path d="M20.0497 17.65C20.0497 26.15 23.9897 31.48 31.8597 31.48C34.8397 31.48 37.4798 30.9 40.0698 30.14V33.88C37.5298 34.84 35.0297 35.27 31.2397 35.27C20.7297 35.27 15.4897 28.4 15.4897 17.6C15.4897 6.80004 21.3497 0.0300293 31.9597 0.0300293C35.4597 0.0300293 38.8197 0.750018 41.4197 2.05002L39.6898 5.70004C37.5798 4.74004 34.9897 3.83002 31.9097 3.83002C24.5697 3.83002 20.0497 9.06003 20.0497 17.66V17.65Z" fill="black"/>
<path d="M65.9399 17.27V34.79H62.8699L62.0499 31.14H61.8599C59.5999 33.97 57.5398 35.27 53.2198 35.27C48.5598 35.27 45.1099 32.87 45.1099 27.64C45.1099 22.41 49.0498 19.67 57.4498 19.43L61.8199 19.29V17.75C61.8199 13.48 59.8499 12.04 56.4899 12.04C53.7999 12.04 51.3499 13 49.2399 14.01L47.9399 10.84C50.1999 9.64 53.3599 8.63 56.7299 8.63C62.9699 8.63 65.9498 11.27 65.9498 17.27H65.9399ZM49.4698 27.69C49.4698 30.57 51.3899 31.87 54.1799 31.87C58.4999 31.87 61.7599 29.52 61.7599 24.53V22.23L57.9698 22.37C51.5398 22.61 49.4698 24.43 49.4698 27.7V27.69Z" fill="black"/>
<path d="M96.7101 21.8701C96.7101 30.6601 92.4902 35.2601 86.1002 35.2601C82.1202 35.2601 79.6202 33.5301 78.1302 31.5101H77.8401C77.9401 32.6101 78.1302 34.5301 78.1302 35.7301V46.2901H73.9102V9.04007H77.3702L77.9501 12.5401H78.1401C79.6801 10.3301 81.9802 8.56006 86.1602 8.56006C92.5002 8.56006 96.7202 12.98 96.7202 21.86L96.7101 21.8701ZM78.1302 21.05V21.8701C78.1302 28.2101 79.8602 31.7601 85.4702 31.7601C90.1302 31.7601 92.3301 27.5801 92.3301 21.8201C92.3301 16.0601 90.1202 12.1201 85.3702 12.1201C80.1402 12.1201 78.2202 15.05 78.1202 21.05H78.1302Z" fill="black"/>
<path d="M65.9399 58.27V75.79H62.8699L62.0499 72.14H61.8599C59.5999 74.97 57.5398 76.27 53.2198 76.27C48.5598 76.27 45.1099 73.87 45.1099 68.64C45.1099 63.41 49.0498 60.67 57.4498 60.43L61.8199 60.29V58.75C61.8199 54.48 59.8499 53.04 56.4899 53.04C53.7999 53.04 51.3499 54 49.2399 55.01L47.9399 51.84C50.1999 50.64 53.3599 49.63 56.7299 49.63C62.9699 49.63 65.9498 52.27 65.9498 58.27H65.9399ZM49.4698 68.69C49.4698 71.57 51.3899 72.87 54.1799 72.87C58.4999 72.87 61.7599 70.52 61.7599 65.53V63.23L57.9698 63.37C51.5398 63.61 49.4698 65.43 49.4698 68.7V68.69Z" fill="black"/>
<path d="M96.7101 62.8701C96.7101 71.6601 92.4902 76.2601 86.1002 76.2601C82.1202 76.2601 79.6202 74.5301 78.1302 72.5101H77.8401C77.9401 73.6101 78.1302 75.5301 78.1302 76.7301V87.2901H73.9102V50.0401H77.3702L77.9501 53.5401H78.1401C79.6801 51.3301 81.9802 49.5601 86.1602 49.5601C92.5002 49.5601 96.7202 53.98 96.7202 62.86L96.7101 62.8701ZM78.1302 62.05V62.8701C78.1302 69.2101 79.8602 72.7601 85.4702 72.7601C90.1302 72.7601 92.3301 68.5801 92.3301 62.8201C92.3301 57.0601 90.1202 53.1201 85.3702 53.1201C80.1402 53.1201 78.2202 56.05 78.1202 62.05H78.1302Z" fill="black"/>
<path d="M9.65021 45.74C9.84021 47.71 9.99023 51.36 9.99023 55V75.79H6.01025V41.52H12.3902L22.9502 69.6H23.1402L33.8902 41.52H40.2302V75.79H35.9602V54.72C35.9602 51.41 36.1502 47.86 36.3002 45.79H36.1102L24.6902 75.79H21.1402L9.86023 45.74H9.65021Z" fill="black"/>
<path d="M112 89H0V101H112V89Z" fill="black"/>
<path d="M112 89V0H100V89H112Z" fill="black"/>
<path d="M120 103H0V109H120V103Z" fill="black"/>
<path d="M120 105V0H114V105H120Z" fill="black"/>
<path d="M125 111H0V114H125V111Z" fill="black"/>
<path d="M125 111V0H122V111H125Z" fill="black"/>
</svg>
