<svg width="63" height="62" viewBox="0 0 63 62" fill="none" xmlns="http://www.w3.org/2000/svg">
<path d="M2.90579 11.0978C2.22437 11.4899 1.65814 12.0579 1.26498 12.7438C0.871807 13.4296 0.665795 14.2087 0.667992 15.0014V56.5223C0.665517 57.2959 0.861345 58.0569 1.23639 58.7312C1.61143 59.4055 2.15288 59.9701 2.80797 60.3699C3.46306 60.7696 4.20943 60.991 4.97432 61.0123C5.73921 61.0337 6.49652 60.8543 7.17242 60.4917C7.23193 60.4595 7.29005 60.4259 7.3468 60.3881L18.9911 52.6859C19.1457 52.5839 19.2727 52.4445 19.3604 52.2803C19.4482 52.1161 19.4939 51.9323 19.4935 51.7456V1.73891C19.494 1.53501 19.4395 1.33483 19.3358 1.15998C19.232 0.985126 19.083 0.842246 18.9048 0.746765C18.7266 0.651283 18.526 0.606828 18.3246 0.618198C18.1232 0.629568 17.9288 0.696331 17.7622 0.811281L2.90579 11.0978ZM25.6284 0.739925C25.4615 0.630224 25.2684 0.568061 25.0694 0.559984C24.8705 0.551906 24.6731 0.598212 24.498 0.694025C24.3229 0.789839 24.1766 0.931613 24.0745 1.10442C23.9724 1.27722 23.9183 1.47467 23.9179 1.67595V51.7037C23.9174 51.8903 23.9632 52.0741 24.0509 52.2383C24.1386 52.4025 24.2656 52.5419 24.4202 52.6439L37.7059 61.3773C37.8729 61.4875 38.0663 61.5499 38.2656 61.5582C38.4648 61.5664 38.6626 61.52 38.8379 61.424C39.0133 61.328 39.1597 61.1858 39.2618 61.0126C39.3639 60.8394 39.4178 60.6415 39.4178 60.4399V10.4444C39.4183 10.2574 39.3725 10.0732 39.2845 9.90873C39.1965 9.74424 39.0691 9.60467 38.914 9.50275L25.6284 0.739925ZM60.5267 1.74171C59.8741 1.3379 59.1282 1.11403 58.3633 1.09243C57.5984 1.07083 56.8413 1.25224 56.1674 1.61859C56.1077 1.64956 56.0499 1.68413 55.9944 1.72212L44.3487 9.4174C44.1941 9.51935 44.0671 9.65878 43.9794 9.82299C43.8916 9.9872 43.8459 10.171 43.8463 10.3576V60.3713C43.8456 60.5755 43.9001 60.7759 44.0039 60.951C44.1077 61.1261 44.2569 61.2691 44.4353 61.3646C44.6138 61.4602 44.8146 61.5045 45.0162 61.493C45.2178 61.4814 45.4124 61.4143 45.579 61.299L60.3966 51.0209C61.0863 50.6319 61.6605 50.0636 62.0598 49.3747C62.4591 48.6859 62.669 47.9017 62.6677 47.1033V5.68869C62.6768 4.90017 62.4845 4.12261 62.1095 3.43119C61.7344 2.73976 61.1893 2.15785 60.5267 1.74171Z" fill="black"/>
</svg>
