<svg width="31" height="29" viewBox="0 0 31 29" fill="none" xmlns="http://www.w3.org/2000/svg">
<g id="Group 63">
<path id="Vector 249" d="M5.57631 19.6397H5.58361L5.5909 19.6396C6.4928 19.6264 7.42377 19.6328 7.96937 19.637C8.45164 20.1168 9.36471 21.0235 10.2355 21.888L11.7325 23.3738L12.214 23.8517L12.3478 23.9845L12.3609 23.9975C12.3824 24.0229 12.4114 24.0564 12.4478 24.097C12.5232 24.1811 12.6307 24.2957 12.7695 24.4307C13.0462 24.6999 13.4512 25.0538 13.9765 25.407C14.946 26.0589 16.3491 26.7231 18.1185 26.8206C18.7762 27.4219 19.5422 27.5371 20.179 27.4368C20.7704 27.3438 21.233 27.0722 21.4068 26.9615C22.1728 26.5942 22.5493 26.3981 22.7994 26.2493C22.9342 26.1692 23.0275 26.1057 23.1076 26.0511L23.1108 26.0489C23.184 25.999 23.2477 25.9556 23.3485 25.8938C23.5555 25.7669 23.8501 25.5233 24.1343 25.2753C24.4416 25.0072 24.8058 24.6723 25.1764 24.3148C25.8997 23.617 26.7146 22.7688 27.1595 22.145C27.6131 21.5091 28.1547 20.4244 28.5843 19.3626C29.0052 18.3221 29.3952 17.1183 29.4354 16.2611L29.436 16.2473L29.4363 16.2336C29.4369 16.2013 29.4377 16.1646 29.4385 16.1238C29.4482 15.6574 29.4688 14.6587 29.4258 13.5869C29.3809 12.4671 29.263 11.0978 28.9116 10.1882C28.3511 8.73701 27.5899 6.7725 26.1376 5.22293C24.8271 3.82458 22.9164 2.36173 21.4061 1.68622L20.9978 2.59908L21.4061 1.68622C21.3895 1.6788 21.3638 1.66616 21.3303 1.64963C21.112 1.54209 20.5598 1.27001 19.9988 1.20127C19.6379 1.15705 19.209 1.18014 18.7776 1.37849C18.5104 1.50132 18.2736 1.677 18.0677 1.89876C16.2177 1.98313 14.8929 2.52483 13.9974 3.1059C13.5145 3.41924 13.1658 3.73788 12.9313 3.98851C12.8141 4.1138 12.7252 4.22225 12.6622 4.30488C12.648 4.32353 12.6351 4.34089 12.6234 4.35683L12.5102 4.46995L12.04 4.93999C11.6467 5.33317 11.1123 5.86758 10.5479 6.43244C9.60399 7.37695 8.57338 8.40928 7.97901 9.00783C7.82495 9.00826 7.64016 9.00881 7.43865 9.0094C7.28685 9.00985 7.12555 9.01033 6.96074 9.01081C6.28527 9.01276 5.54865 9.01471 5.15077 9.01471C4.95843 9.01471 4.77297 9.01344 4.60858 9.0123C4.44648 9.01119 4.30485 9.01021 4.19727 9.01074C3.97077 9.01186 3.7281 9.01756 3.49923 9.06422C3.01145 9.16366 2.68519 9.4465 2.45059 9.64987C2.41858 9.67762 2.38828 9.70389 2.35951 9.72801L2.28638 9.78932L2.22616 9.86336C2.05798 10.0701 1.89508 10.304 1.78153 10.6048C1.67012 10.9 1.63028 11.1959 1.61379 11.4963C1.5968 11.806 1.60307 12.233 1.6114 12.801C1.61742 13.2114 1.62453 13.6954 1.62472 14.262C1.62488 14.7373 1.62245 15.1543 1.62031 15.5201C1.61566 16.3165 1.61243 16.871 1.64044 17.2596C1.66257 17.5666 1.70787 17.8635 1.82411 18.1522C1.94415 18.4503 2.11165 18.6693 2.2682 18.8505C2.74415 19.4014 3.33145 19.5779 3.89323 19.6307C4.21766 19.6613 4.62936 19.6538 5.03985 19.6463C5.22146 19.643 5.40283 19.6397 5.57631 19.6397Z" fill="#FAFAFA" stroke="#FAFAFA" stroke-width="2"/>
<path id="Vector" d="M2.64355 11.4516V17.2011C2.64355 17.9917 3.29037 18.6385 4.08093 18.6385H8.39307L13.122 23.3675C14.0276 24.273 15.58 23.6262 15.58 22.3469V6.29142C15.58 5.01215 14.0276 4.36533 13.122 5.27088L8.39307 10.0142H4.08093C3.29037 10.0142 2.64355 10.661 2.64355 11.4516ZM22.0482 14.3264C22.0479 13.122 21.7113 11.9417 21.0764 10.9183C20.4416 9.89483 19.5336 9.06899 18.4547 8.53373V20.1046C20.582 19.0553 22.0482 16.8705 22.0482 14.3264ZM18.4547 3.47416V3.76163C18.4547 4.30784 18.8141 4.78217 19.3171 4.9834C23.0256 6.4639 25.6416 10.1005 25.6416 14.3264C25.6416 18.5522 23.0256 22.1888 19.3171 23.6693C18.7997 23.8705 18.4547 24.3449 18.4547 24.8911V25.1786C18.4547 26.0841 19.3603 26.7166 20.1939 26.4003C25.0667 24.5461 28.5164 19.8459 28.5164 14.3264C28.5164 8.80683 25.0667 4.1066 20.1939 2.25239C19.3603 1.92179 18.4547 2.56861 18.4547 3.47416Z" fill="black"/>
<path id="Vector_2" fill-rule="evenodd" clip-rule="evenodd" d="M21.0764 10.9183C21.7113 11.9417 22.0479 13.122 22.0482 14.3264C22.0482 16.8705 20.582 19.0553 18.4547 20.1046V8.53373C19.5336 9.06899 20.4416 9.89483 21.0764 10.9183ZM18.4547 3.76163V3.47416C18.4547 2.56861 19.3603 1.92179 20.1939 2.25239C25.0667 4.1066 28.5164 8.80683 28.5164 14.3264C28.5164 19.8459 25.0667 24.5461 20.1939 26.4003C19.3603 26.7166 18.4547 26.0841 18.4547 25.1786V24.8911C18.4547 24.3449 18.7997 23.8705 19.3171 23.6693C23.0256 22.1888 25.6416 18.5522 25.6416 14.3264C25.6416 10.1005 23.0256 6.4639 19.3171 4.9834C18.8141 4.78217 18.4547 4.30784 18.4547 3.76163Z" fill="#FFC700"/>
</g>
</svg>
