<svg width="26" height="46" viewBox="0 0 26 46" fill="none" xmlns="http://www.w3.org/2000/svg">
<path d="M20.9063 9.39931V9.29012L20.8904 9.18208C20.6871 7.79288 19.9362 6.02729 18.6669 4.60454C17.3736 3.1548 15.4517 1.97104 12.9448 2.0385C10.2923 2.04497 8.28398 3.20997 6.96163 4.70901C5.67833 6.16378 4.98629 7.99509 4.98501 9.49312C4.98501 9.49451 4.98501 9.49589 4.98501 9.49728L4.90337 25.5429C3.76521 26.8887 1.91309 29.0832 1.91309 33.0114C1.91309 37.8608 5.61052 44.0487 12.9842 44.0487C19.2151 44.0487 23.9202 38.8517 23.9202 32.9945C23.9202 31.2559 23.5843 29.846 22.9536 28.5594C22.4211 27.4731 21.6996 26.5216 20.9063 25.5853V9.39931Z" stroke="#FAFAFA" stroke-width="3"/>
<path d="M17.9611 39.2787C16.9103 40.1383 15.6593 40.7147 14.3259 40.9536C12.9925 41.1925 11.6207 41.0861 10.3394 40.6444C9.05823 40.2027 7.90982 39.4402 7.00235 38.4287C6.09488 37.4172 5.4582 36.1901 5.15224 34.8627C4.844 33.5209 4.88397 32.122 5.26832 30.8002C5.65266 29.4785 6.36846 28.2784 7.34691 27.3154C7.53543 27.1295 7.6854 26.9078 7.78814 26.6632C7.89089 26.4185 7.94436 26.1558 7.94545 25.8902V10.0328C7.94545 8.70191 8.47096 7.42552 9.40637 6.48444C10.3418 5.54335 11.6105 5.01465 12.9333 5.01465C14.2562 5.01465 15.5249 5.54335 16.4603 6.48444C17.3957 7.42552 17.9212 8.70191 17.9212 10.0328V25.9705C17.9223 26.2361 17.9758 26.4988 18.0785 26.7434C18.1813 26.9881 18.3312 27.2098 18.5197 27.3957C19.3353 28.1883 19.9735 29.1467 20.392 30.2069C20.8105 31.2672 20.9997 32.405 20.9468 33.5445C20.8939 34.6841 20.6003 35.7992 20.0855 36.8157C19.5707 37.8321 18.8465 38.5659 17.9611 39.2787Z" fill="#FAFAFA" stroke="black" stroke-width="3"/>
<path d="M14.5 22.2175C14.5 21.3891 13.8284 20.7175 13 20.7175C12.1716 20.7175 11.5 21.3891 11.5 22.2175L14.5 22.2175ZM11.5 22.2175L11.5 29.8584L14.5 29.8584L14.5 22.2175L11.5 22.2175Z" fill="#49D53D"/>
<circle cx="12.9707" cy="33.1345" r="4" fill="#49D53D"/>
</svg>
