<svg width="26" height="46" viewBox="0 0 26 46" fill="none" xmlns="http://www.w3.org/2000/svg">
<path d="M17.9611 39.5984C16.9103 40.458 15.6593 41.0344 14.3259 41.2733C12.9925 41.5122 11.6207 41.4058 10.3394 40.9641C9.05823 40.5224 7.90982 39.7599 7.00235 38.7484C6.09488 37.7369 5.4582 36.5098 5.15224 35.1824C4.844 33.8406 4.88397 32.4417 5.26832 31.1199C5.65266 29.7982 6.36846 28.5981 7.34691 27.6351C7.53543 27.4492 7.6854 27.2275 7.78814 26.9829C7.89089 26.7382 7.94436 26.4755 7.94545 26.2099V10.3525C7.94545 9.02162 8.47096 7.74523 9.40637 6.80414C10.3418 5.86305 11.6105 5.33435 12.9333 5.33435C14.2562 5.33435 15.5249 5.86305 16.4603 6.80414C17.3957 7.74523 17.9212 9.02162 17.9212 10.3525V26.2902C17.9223 26.5558 17.9758 26.8185 18.0785 27.0631C18.1813 27.3078 18.3312 27.5295 18.5197 27.7154C19.3353 28.508 19.9735 29.4664 20.392 30.5266C20.8105 31.5869 20.9997 32.7247 20.9468 33.8642C20.8939 35.0038 20.6003 36.1189 20.0855 37.1354C19.5707 38.1518 18.8464 38.8856 17.9611 39.5984Z" fill="#FAFAFA" stroke="black" stroke-width="3"/>
<path d="M14.5 10.3236C14.5 9.49518 13.8284 8.82361 13 8.82361C12.1716 8.82361 11.5 9.49518 11.5 10.3236L14.5 10.3236ZM11.5 10.3236L11.5 30.182L14.5 30.182L14.5 10.3236L11.5 10.3236Z" fill="#F40000"/>
<circle cx="12.9707" cy="33.4581" r="4" fill="#F40000"/>
<path d="M20.9063 9.71913V9.60994L20.8904 9.5019C20.6871 8.1127 19.9362 6.34711 18.6669 4.92436C17.3736 3.47463 15.4517 2.29086 12.9448 2.35833C10.2923 2.36479 8.28398 3.5298 6.96163 5.02883C5.67833 6.48361 4.98629 8.31491 4.98501 9.81295C4.98501 9.81433 4.98501 9.81572 4.98501 9.8171L4.90337 25.8627C3.76521 27.2085 1.91309 29.403 1.91309 33.3312C1.91309 38.1806 5.61052 44.3685 12.9842 44.3685C19.2151 44.3685 23.9202 39.1715 23.9202 33.3143C23.9202 31.5757 23.5843 30.1659 22.9536 28.8792C22.4211 27.7929 21.6996 26.8414 20.9063 25.9051V9.71913Z" stroke="#FAFAFA" stroke-width="3"/>
</svg>
