<svg width="26" height="46" viewBox="0 0 26 46" fill="none" xmlns="http://www.w3.org/2000/svg">
<path d="M17.9611 39.4385C16.9103 40.2981 15.6593 40.8745 14.3259 41.1134C12.9925 41.3523 11.6207 41.2459 10.3394 40.8042C9.05823 40.3625 7.90982 39.6 7.00235 38.5885C6.09488 37.577 5.4582 36.3499 5.15224 35.0225C4.844 33.6807 4.88397 32.2818 5.26832 30.96C5.65266 29.6383 6.36846 28.4382 7.34691 27.4752C7.53543 27.2893 7.6854 27.0676 7.78814 26.8229C7.89089 26.5783 7.94436 26.3156 7.94545 26.05V10.1926C7.94545 8.8617 8.47096 7.58531 9.40637 6.64423C10.3418 5.70314 11.6105 5.17444 12.9333 5.17444C14.2562 5.17444 15.5249 5.70314 16.4603 6.64423C17.3957 7.58531 17.9212 8.8617 17.9212 10.1926V26.1303C17.9223 26.3959 17.9758 26.6586 18.0785 26.9032C18.1813 27.1479 18.3312 27.3696 18.5197 27.5555C19.3353 28.3481 19.9735 29.3064 20.392 30.3667C20.8105 31.427 20.9997 32.5648 20.9468 33.7043C20.8939 34.8439 20.6003 35.959 20.0855 36.9755C19.5707 37.9919 18.8464 38.7257 17.9611 39.4385Z" fill="#FAFAFA" stroke="black" stroke-width="3"/>
<path d="M14.414 15.7096C14.409 14.8812 13.7334 14.2137 12.905 14.2187C12.0766 14.2237 11.4091 14.8993 11.4141 15.7277L14.414 15.7096ZM11.4141 15.7277L11.5 29.9665L14.5 29.9483L14.414 15.7096L11.4141 15.7277Z" fill="#E97409"/>
<circle cx="12.9707" cy="33.2335" r="4" fill="#E97409"/>
<path d="M20.9063 9.55922V9.45003L20.8904 9.34199C20.6871 7.95279 19.9362 6.1872 18.6669 4.76445C17.3736 3.31471 15.4517 2.13095 12.9448 2.19842C10.2923 2.20488 8.28398 3.36989 6.96163 4.86892C5.67833 6.3237 4.98629 8.155 4.98501 9.65303C4.98501 9.65442 4.98501 9.65581 4.98501 9.65719L4.90337 25.7028C3.76521 27.0486 1.91309 29.2431 1.91309 33.1713C1.91309 38.0207 5.61052 44.2086 12.9842 44.2086C19.2151 44.2086 23.9202 39.0116 23.9202 33.1544C23.9202 31.4158 23.5843 30.0059 22.9536 28.7193C22.4211 27.633 21.6996 26.6815 20.9063 25.7452V9.55922Z" stroke="#FAFAFA" stroke-width="3"/>
</svg>
